<?xml version="1.0" encoding="UTF-8"?><svg id="_이어_2" xmlns="http://www.w3.org/2000/svg" viewBox="0 0 805 806.23"><defs><style>.cls-1{fill:#f1f1f5;}.cls-2{fill:#fff;stroke:#5d8bf4;stroke-width:5px;}.cls-2,.cls-3{stroke-miterlimit:10;}.cls-3{fill:none;stroke:#02004a;}.cls-4{fill:#22437b;}.cls-5{fill:#f8f8fa;}.cls-6{fill:#191919;}</style></defs><g id="_이어_1-2"><g><g><path class="cls-3" d="M686.02,304.77c-30.07-86.38-98.5-154.78-184.91-184.8"/><path class="cls-3" d="M686.02,502.05c-30.05,86.35-98.45,154.73-184.81,184.77"/><path class="cls-3" d="M304.06,686.82c-86.38-30.04-154.78-98.44-184.83-184.81"/><path class="cls-3" d="M304.16,119.97c-86.42,30.02-154.86,98.44-184.92,184.84"/></g><g><path class="cls-2" d="M119.24,304.81c47.26,7.96,83.26,49.07,83.26,98.6s-36,90.63-83.26,98.6"/><path class="cls-2" d="M119.24,304.81c-5.44-.92-11.03-1.4-16.74-1.4-55.23,0-100,44.77-100,100s44.77,100,100,100c5.7,0,11.29-.48,16.74-1.4"/></g><g><path class="cls-2" d="M304.06,686.82c-.94,5.5-1.43,11.14-1.43,16.91,0,55.23,44.77,100,100,100s100-44.77,100-100c0-5.76-.49-11.41-1.43-16.91"/><path class="cls-2" d="M304.06,686.82c8.03-47.18,49.1-83.09,98.57-83.09s90.54,35.92,98.57,83.09"/></g><g><path class="cls-2" d="M303.79,119.97c8.26,46.9,49.21,82.53,98.48,82.53s90.21-35.63,98.48-82.53"/><path class="cls-2" d="M303.79,119.97c-1-5.67-1.52-11.51-1.52-17.47,0-55.23,44.77-100,100-100s100,44.77,100,100c0,5.96-.52,11.8-1.52,17.47"/></g><g><path class="cls-2" d="M686.02,304.77c-47.39,7.86-83.52,49.03-83.52,98.64s36.13,90.78,83.52,98.64"/><path class="cls-2" d="M686.02,304.77c5.36-.89,10.87-1.36,16.48-1.36,55.23,0,100,44.77,100,100s-44.77,100-100,100c-5.61,0-11.12-.47-16.48-1.36"/></g><circle class="cls-4" cx="402.63" cy="403.11" r="175"/><g><path class="cls-5" d="M456.66,326.92c-7.91-6-16.27-6.1-18.72-6.04l-19.38-.19-9.45-3.31h-81.35v4.3l-56.55,19.49v12.4l56.55-19.5v2.69l-42.31,14.74,.39,11.7,41.92-13.96v2.69l-31.59,11.08v12.09l31.59-10.65v65.64l51.48-7.21v-60.07c6.59-5.55,17.25-13.06,31.98-17.93,25.11-8.29,46.92-3.88,56.35-1.36-.59-2.36-2.91-10.5-10.92-16.57Zm-4.85,6.24c-1.14-.84-1.69-2.29-1.39-3.71l.2-.19s4.15,2.97,5.45,3.91c-1.29,.91-3.01,.9-4.26,0Z"/><path class="cls-1" d="M435.79,350.52l-27.69-.19-.39-29.25h-.21c1.57-1.48,2.55-3.58,2.55-5.85,0-4.28-3.48-7.94-7.8-7.99-4.39-.05-7.99,3.64-7.99,7.99,0,2.27,.98,4.36,2.53,5.83v28.99h-27.66l15.77,8.86h7.46l.54,125.58,10.33,13.82,9.85-13.87-.29-125.53h7.8l15.21-8.38Z"/><path class="cls-5" d="M477.33,469.74v-2.69l42.31-14.74-.39-11.7-41.92,13.96v-2.69l31.59-11.08v-12.09l-31.59,10.65v-65.64l-51.48,7.21v60.07c-6.59,5.55-17.25,13.06-31.98,17.93-25.11,8.29-46.92,3.88-56.35,1.36,.59,2.36,2.91,10.5,10.92,16.57,7.91,6,16.27,6.1,18.72,6.04l19.38,.19,9.45,3.31h81.35v-4.3l56.55-19.49v-12.4l-56.55,19.5Zm-122.66,4.61l-.2,.19s-4.15-2.97-5.45-3.91c1.29-.91,3.01-.9,4.26,0,1.14,.84,1.69,2.29,1.39,3.71Z"/></g><g><path d="M343.68,96.6h-7.88v5.33h9.24v3.29h-13.34v-19.91h13.32v3.32h-9.21v4.74h7.88v3.21Z"/><path d="M363.64,105.23h-4.1l-7.98-13.1v13.1h-4.1v-19.91h4.1l8,13.12v-13.12h4.09v19.91Z"/><path d="M379.2,96.6h-7.88v5.33h9.24v3.29h-13.34v-19.91h13.32v3.32h-9.21v4.74h7.88v3.21Z"/><path d="M390.34,97.94h-3.27v7.29h-4.1v-19.91h7.4c2.35,0,4.17,.52,5.44,1.57,1.28,1.05,1.91,2.53,1.91,4.44,0,1.36-.29,2.49-.88,3.4-.59,.91-1.48,1.63-2.67,2.17l4.31,8.13v.19h-4.4l-3.73-7.29Zm-3.27-3.32h3.31c1.03,0,1.83-.26,2.39-.79,.56-.52,.85-1.25,.85-2.17s-.27-1.68-.8-2.21c-.53-.54-1.35-.81-2.45-.81h-3.29v5.97Z"/><path d="M416.59,102.71c-.74,.88-1.78,1.57-3.13,2.06-1.35,.49-2.84,.73-4.48,.73-1.72,0-3.23-.38-4.53-1.13s-2.3-1.84-3.01-3.27c-.71-1.43-1.07-3.11-1.09-5.04v-1.35c0-1.99,.33-3.71,1-5.16,.67-1.45,1.64-2.57,2.9-3.34,1.26-.77,2.74-1.16,4.44-1.16,2.36,0,4.21,.56,5.54,1.69,1.33,1.13,2.12,2.76,2.37,4.92h-3.99c-.18-1.14-.59-1.97-1.21-2.5-.62-.53-1.48-.79-2.58-.79-1.39,0-2.46,.52-3.19,1.57-.73,1.05-1.1,2.61-1.11,4.68v1.27c0,2.09,.4,3.66,1.19,4.73s1.96,1.6,3.49,1.6,2.64-.33,3.29-.98v-3.43h-3.73v-3.02h7.83v7.94Z"/><path d="M431.89,96.6h-7.88v5.33h9.24v3.29h-13.34v-19.91h13.32v3.32h-9.21v4.74h7.88v3.21Z"/><path d="M450.92,88.64h-6.1v16.58h-4.1v-16.58h-6.02v-3.32h16.21v3.32Z"/><path d="M457.62,105.23h-4.1v-19.91h4.1v19.91Z"/><path d="M477.05,98.6c-.16,2.14-.95,3.83-2.37,5.06s-3.31,1.85-5.64,1.85c-2.55,0-4.56-.86-6.02-2.58-1.46-1.72-2.19-4.08-2.19-7.08v-1.22c0-1.91,.34-3.6,1.01-5.06,.67-1.46,1.64-2.58,2.89-3.36s2.71-1.17,4.37-1.17c2.3,0,4.15,.62,5.55,1.85s2.21,2.96,2.43,5.18h-4.1c-.1-1.29-.46-2.22-1.07-2.8-.62-.58-1.55-.87-2.81-.87-1.37,0-2.39,.49-3.07,1.47-.68,.98-1.03,2.5-1.05,4.56v1.5c0,2.15,.33,3.72,.98,4.72,.65,.99,1.68,1.49,3.08,1.49,1.27,0,2.21-.29,2.84-.87,.62-.58,.98-1.47,1.07-2.69h4.1Z"/></g><g><path d="M53.6,395.59h-7.88v5.33h9.24v3.29h-13.34v-19.91h13.32v3.32h-9.21v4.74h7.88v3.21Z"/><path d="M64.5,391.17l3.73-6.86h4.72l-5.8,9.87,5.95,10.04h-4.77l-3.83-6.97-3.83,6.97h-4.77l5.95-10.04-5.8-9.87h4.72l3.73,6.86Z"/><path d="M90.79,397.58c-.16,2.14-.95,3.83-2.37,5.06-1.43,1.23-3.31,1.85-5.64,1.85-2.55,0-4.56-.86-6.02-2.58-1.46-1.72-2.19-4.08-2.19-7.08v-1.22c0-1.91,.34-3.6,1.01-5.06,.67-1.46,1.64-2.58,2.89-3.36,1.25-.78,2.71-1.17,4.37-1.17,2.3,0,4.15,.62,5.55,1.85,1.4,1.23,2.21,2.96,2.43,5.18h-4.1c-.1-1.29-.46-2.22-1.07-2.8-.62-.58-1.55-.87-2.81-.87-1.37,0-2.39,.49-3.07,1.47-.68,.98-1.03,2.5-1.05,4.56v1.5c0,2.15,.33,3.72,.98,4.72,.65,.99,1.68,1.49,3.08,1.49,1.27,0,2.21-.29,2.84-.87,.62-.58,.98-1.47,1.07-2.69h4.1Z"/><path d="M97.84,404.21h-4.1v-19.91h4.1v19.91Z"/><path d="M116.63,387.63h-6.1v16.58h-4.1v-16.58h-6.02v-3.32h16.21v3.32Z"/><path d="M123.33,404.21h-4.1v-19.91h4.1v19.91Z"/><path d="M143.32,404.21h-4.1l-7.98-13.1v13.1h-4.1v-19.91h4.1l8,13.12v-13.12h4.09v19.91Z"/><path d="M162.65,401.7c-.74,.88-1.78,1.57-3.13,2.06s-2.84,.73-4.48,.73c-1.72,0-3.23-.38-4.53-1.13s-2.3-1.84-3.01-3.27c-.71-1.43-1.07-3.11-1.09-5.04v-1.35c0-1.99,.33-3.71,1-5.16,.67-1.45,1.64-2.57,2.9-3.34,1.26-.77,2.74-1.16,4.44-1.16,2.36,0,4.21,.56,5.54,1.69,1.33,1.13,2.12,2.76,2.37,4.92h-3.99c-.18-1.14-.59-1.97-1.21-2.5-.62-.53-1.48-.79-2.58-.79-1.39,0-2.46,.52-3.19,1.57-.73,1.05-1.1,2.61-1.11,4.68v1.27c0,2.09,.4,3.66,1.19,4.73s1.96,1.6,3.49,1.6,2.64-.33,3.29-.98v-3.43h-3.73v-3.02h7.83v7.94Z"/></g><g><path d="M328.39,698.99h-6.75v4.57h7.92v2.82h-11.44v-17.06h11.41v2.85h-7.9v4.07h6.75v2.75Z"/><path d="M337.93,702.15l3.87-12.83h3.91l-5.94,17.06h-3.67l-5.92-17.06h3.9l3.84,12.83Z"/><path d="M357.58,698.99h-6.75v4.57h7.92v2.82h-11.44v-17.06h11.41v2.85h-7.9v4.07h6.75v2.75Z"/><path d="M367.13,700.14h-2.8v6.25h-3.52v-17.06h6.34c2.02,0,3.57,.45,4.66,1.35s1.64,2.17,1.64,3.81c0,1.16-.25,2.13-.76,2.91s-1.27,1.4-2.29,1.86l3.69,6.97v.16h-3.77l-3.2-6.25Zm-2.8-2.85h2.84c.88,0,1.57-.22,2.05-.67s.73-1.07,.73-1.86-.23-1.44-.69-1.9-1.16-.69-2.1-.69h-2.82v5.12Z"/><path d="M381.46,697.01l3.55-7.69h3.84l-5.6,10.88v6.19h-3.57v-6.19l-5.6-10.88h3.86l3.53,7.69Z"/><path d="M405.23,701.91c0-.66-.23-1.17-.7-1.53-.47-.36-1.31-.73-2.53-1.12s-2.18-.78-2.89-1.17c-1.94-1.05-2.91-2.46-2.91-4.23,0-.92,.26-1.74,.78-2.47s1.27-1.29,2.24-1.69,2.06-.61,3.28-.61,2.3,.22,3.26,.66,1.69,1.06,2.22,1.87,.79,1.72,.79,2.74h-3.52c0-.78-.25-1.39-.74-1.82-.49-.43-1.18-.65-2.07-.65s-1.53,.18-2,.54-.71,.84-.71,1.44c0,.55,.28,1.02,.84,1.39s1.38,.73,2.47,1.05c2,.6,3.46,1.35,4.37,2.24s1.37,2,1.37,3.33c0,1.48-.56,2.63-1.68,3.47s-2.62,1.26-4.51,1.26c-1.31,0-2.51-.24-3.59-.72s-1.9-1.14-2.47-1.97-.85-1.8-.85-2.91h3.53c0,1.88,1.12,2.82,3.38,2.82,.84,0,1.49-.17,1.96-.51,.47-.34,.7-.81,.7-1.42Z"/><path d="M425.15,698.24c0,1.68-.3,3.15-.89,4.42s-1.44,2.24-2.55,2.93-2.37,1.03-3.8,1.03-2.68-.34-3.79-1.02-1.97-1.65-2.58-2.91-.92-2.71-.93-4.35v-.84c0-1.68,.3-3.16,.91-4.44s1.46-2.26,2.57-2.94,2.37-1.03,3.79-1.03,2.69,.34,3.79,1.03,1.96,1.66,2.57,2.94,.91,2.75,.91,4.42v.76Zm-3.56-.77c0-1.79-.32-3.15-.96-4.08s-1.55-1.39-2.74-1.39-2.09,.46-2.73,1.38-.96,2.26-.97,4.04v.83c0,1.74,.32,3.09,.96,4.05s1.56,1.44,2.77,1.44,2.09-.46,2.72-1.39,.95-2.28,.96-4.05v-.83Z"/><path d="M441.21,704.23c-.63,.76-1.53,1.35-2.68,1.76s-2.44,.63-3.84,.63c-1.48,0-2.77-.32-3.88-.97s-1.97-1.58-2.58-2.81-.92-2.67-.93-4.32v-1.16c0-1.7,.29-3.18,.86-4.42s1.4-2.2,2.48-2.86,2.35-.99,3.8-.99c2.02,0,3.61,.48,4.75,1.45s1.82,2.37,2.03,4.21h-3.42c-.16-.98-.5-1.69-1.04-2.14s-1.27-.68-2.21-.68c-1.2,0-2.11,.45-2.73,1.35s-.94,2.23-.95,4.01v1.09c0,1.79,.34,3.14,1.02,4.05s1.68,1.37,2.99,1.37,2.26-.28,2.82-.84v-2.94h-3.2v-2.59h6.71v6.81Z"/><path d="M453.69,702.87h-6.16l-1.17,3.52h-3.74l6.35-17.06h3.26l6.39,17.06h-3.74l-1.18-3.52Zm-5.21-2.85h4.27l-2.14-6.39-2.12,6.39Z"/><path d="M474.08,706.38h-3.52l-6.84-11.23v11.23h-3.52v-17.06h3.52l6.86,11.25v-11.25h3.5v17.06Z"/><path d="M490.65,704.23c-.63,.76-1.53,1.35-2.68,1.76s-2.44,.63-3.84,.63c-1.48,0-2.77-.32-3.88-.97s-1.97-1.58-2.58-2.81-.92-2.67-.93-4.32v-1.16c0-1.7,.29-3.18,.86-4.42s1.4-2.2,2.48-2.86,2.35-.99,3.8-.99c2.02,0,3.61,.48,4.75,1.45s1.82,2.37,2.03,4.21h-3.42c-.16-.98-.5-1.69-1.04-2.14s-1.27-.68-2.21-.68c-1.2,0-2.11,.45-2.73,1.35s-.94,2.23-.95,4.01v1.09c0,1.79,.34,3.14,1.02,4.05s1.68,1.37,2.99,1.37,2.26-.28,2.82-.84v-2.94h-3.2v-2.59h6.71v6.81Z"/></g><g><path d="M633.26,395.59h-7.88v5.33h9.24v3.29h-13.34v-19.91h13.32v3.32h-9.21v4.74h7.88v3.21Z"/><path d="M644.15,391.17l3.73-6.86h4.72l-5.8,9.87,5.95,10.04h-4.77l-3.83-6.97-3.83,6.97h-4.77l5.95-10.04-5.8-9.87h4.72l3.73,6.86Z"/><path d="M670.44,397.58c-.16,2.14-.95,3.83-2.37,5.06-1.43,1.23-3.31,1.85-5.64,1.85-2.55,0-4.56-.86-6.02-2.58-1.46-1.72-2.19-4.08-2.19-7.08v-1.22c0-1.91,.34-3.6,1.01-5.06,.67-1.46,1.64-2.58,2.89-3.36,1.25-.78,2.71-1.17,4.37-1.17,2.3,0,4.15,.62,5.55,1.85,1.4,1.23,2.21,2.96,2.43,5.18h-4.1c-.1-1.29-.46-2.22-1.07-2.8-.62-.58-1.55-.87-2.81-.87-1.37,0-2.39,.49-3.07,1.47-.68,.98-1.03,2.5-1.05,4.56v1.5c0,2.15,.33,3.72,.98,4.72,.65,.99,1.68,1.49,3.08,1.49,1.27,0,2.21-.29,2.84-.87,.62-.58,.98-1.47,1.07-2.69h4.1Z"/><path d="M685.11,395.59h-7.88v5.33h9.24v3.29h-13.34v-19.91h13.32v3.32h-9.21v4.74h7.88v3.21Z"/><path d="M692.99,400.92h8.71v3.29h-12.81v-19.91h4.1v16.61Z"/><path d="M708.15,400.92h8.71v3.29h-12.81v-19.91h4.1v16.61Z"/><path d="M731.19,395.59h-7.88v5.33h9.24v3.29h-13.34v-19.91h13.32v3.32h-9.21v4.74h7.88v3.21Z"/><path d="M751.15,404.21h-4.1l-7.98-13.1v13.1h-4.1v-19.91h4.1l8,13.12v-13.12h4.09v19.91Z"/><path d="M770.36,397.58c-.16,2.14-.95,3.83-2.37,5.06s-3.31,1.85-5.64,1.85c-2.55,0-4.56-.86-6.02-2.58-1.46-1.72-2.19-4.08-2.19-7.08v-1.22c0-1.91,.34-3.6,1.01-5.06,.67-1.46,1.64-2.58,2.89-3.36s2.71-1.17,4.37-1.17c2.3,0,4.15,.62,5.55,1.85s2.21,2.96,2.43,5.18h-4.1c-.1-1.29-.46-2.22-1.07-2.8-.62-.58-1.55-.87-2.81-.87-1.37,0-2.39,.49-3.07,1.47-.68,.98-1.03,2.5-1.05,4.56v1.5c0,2.15,.33,3.72,.98,4.72,.65,.99,1.68,1.49,3.08,1.49,1.27,0,2.21-.29,2.84-.87,.62-.58,.98-1.47,1.07-2.69h4.1Z"/><path d="M785.03,395.59h-7.88v5.33h9.24v3.29h-13.34v-19.91h13.32v3.32h-9.21v4.74h7.88v3.21Z"/></g><g><path class="cls-6" d="M324.71,723.25v1.09h-10.63v-1.09h4.63v-2.65h-3.44v-5.62h8.22v5.62h-3.43v2.65h4.67Zm-8.14-3.72h5.59v-3.48h-5.59v3.48Z"/><path class="cls-6" d="M336.67,719.91v1.09h-10.62v-1.09h10.62Zm-7.98,4.56h6.86v1.08h-8.2v-3.46h1.34v2.38Zm6.77-5.69h-8.1v-4.26h8.01v1.08h-6.68v2.09h6.77v1.09Z"/><path class="cls-6" d="M345.88,716.93c0,2.18,1.12,4.32,2.91,5.15l-.79,1.08c-1.33-.66-2.27-1.95-2.78-3.52-.52,1.66-1.48,3.03-2.82,3.72l-.85-1.07c1.83-.9,2.98-3.16,2.98-5.36v-1.94h1.35v1.94Zm5.5-2.91v11.78h-1.35v-6.83h-2.51v-1.09h2.51v-3.86h1.35Z"/><path class="cls-6" d="M359.56,714.87c0,3.07-2.03,5.25-5.46,6.24l-.55-1.07c2.72-.78,4.32-2.26,4.55-4.08h-4.03v-1.09h5.49Zm3.33,8.59c0,1.44-1.52,2.33-3.87,2.33s-3.87-.88-3.87-2.33,1.53-2.35,3.87-2.35,3.87,.9,3.87,2.35Zm-1.33,0c0-.82-.98-1.29-2.55-1.29s-2.55,.47-2.55,1.29,.99,1.27,2.55,1.27,2.55-.47,2.55-1.27Zm2.86-6.51v1.1h-1.66v2.9h-1.34v-6.9h1.34v2.9h1.66Z"/><path class="cls-6" d="M368.89,720.7c-1.77,0-3.12-1.24-3.12-2.94s1.35-2.94,3.12-2.94,3.11,1.22,3.11,2.94-1.34,2.94-3.11,2.94Zm0-1.16c1.03,0,1.81-.71,1.81-1.78s-.78-1.78-1.81-1.78-1.81,.7-1.81,1.78,.77,1.78,1.81,1.78Zm6.67,4.93v1.09h-8.01v-3.85h1.35v2.76h6.66Zm-.34-1.9h-1.34v-8.53h1.34v8.53Z"/><path class="cls-6" d="M388.15,718.79v1.08h-10.62v-1.08h10.62Zm-8.04,5.84h7.02v1.04h-8.35v-3h6.69v-.91h-6.72v-1.03h8.03v2.91h-6.68v.99Zm6.77-6.64h-8.01v-3.63h7.89v1.08h-6.56v1.47h6.68v1.08Z"/><path class="cls-6" d="M400.09,718.96v1.07h-10.63v-1.07h10.63Zm-9.5-2.7c0-1.31,1.55-2.03,4.19-2.03s4.19,.71,4.19,2.03-1.56,2.01-4.19,2.01-4.19-.71-4.19-2.01Zm1.48,8.4h7.02v1.03h-8.35v-2.95h6.7v-.85h-6.72v-1.01h8.03v2.81h-6.68v.98Zm-.09-8.4c0,.66,.98,1.01,2.79,1.01s2.8-.35,2.8-1.01-.98-1.03-2.8-1.03-2.79,.35-2.79,1.03Z"/><path class="cls-6" d="M412.77,720.91c-1.03,.21-2.11,.33-3.15,.4v4.12h-1.34v-4.04c-1.1,.04-2.14,.05-3.05,.05l-.16-1.11c2.12,0,5.07-.04,7.61-.42l.09,.99Zm-6.9-3.9c0-1.44,1.27-2.46,3.03-2.46s3.03,1.01,3.03,2.46-1.27,2.47-3.03,2.47-3.03-1.01-3.03-2.47Zm1.29,0c0,.83,.73,1.37,1.74,1.37s1.74-.53,1.74-1.37-.72-1.35-1.74-1.35-1.74,.53-1.74,1.35Zm7.63-2.96v11.75h-1.34v-11.75h1.34Z"/><path class="cls-6" d="M420.55,715.96h2.2v1.08h-5.75v-1.08h2.22v-1.57h1.33v1.57Zm1.88,4.47c0,1.61-1.07,2.73-2.55,2.73s-2.55-1.12-2.55-2.73,1.07-2.73,2.55-2.73,2.55,1.1,2.55,2.73Zm-1.2,0c0-.97-.56-1.62-1.35-1.62s-1.35,.65-1.35,1.62,.56,1.61,1.35,1.61,1.35-.64,1.35-1.61Zm5.79-6.38v11.74h-1.27v-5.77h-1.25v5.23h-1.25v-10.95h1.25v4.62h1.25v-4.86h1.27Z"/><path class="cls-6" d="M439.96,720.3c-2.48,.44-5.25,.47-7.29,.47l-.14-.95c.88,0,1.91,0,2.99-.03v-.66c-1.33-.13-2.13-.66-2.13-1.51,0-.96,1.09-1.53,2.79-1.53s2.79,.57,2.79,1.53c0,.84-.79,1.38-2.11,1.51v.61c1.01-.05,2.04-.13,2.99-.26l.1,.82Zm-.43-4.51h-6.7v-.92h2.68v-.94h1.35v.94h2.67v.92Zm-4.1,8.97h6.81v.92h-8.14v-2.59h6.38v-.74h-6.41v-.91h7.74v2.5h-6.38v.82Zm.74-6.43c.95,0,1.53-.25,1.53-.7s-.58-.69-1.53-.69-1.53,.25-1.53,.69,.6,.7,1.53,.7Zm7.25-1.38v1.1h-1.61v2.9h-1.34v-6.9h1.34v2.9h1.61Z"/><path class="cls-6" d="M455.21,719.71v1.09h-10.61v-1.09h4.63v-1.17h-3.31v-3.98h8v1.07h-6.67v1.83h6.75v1.08h-3.42v1.17h4.64Zm-1.3,3.94c0,1.37-1.52,2.14-4.04,2.14s-4.04-.78-4.04-2.14,1.53-2.13,4.04-2.13,4.04,.78,4.04,2.13Zm-1.35,0c0-.71-.97-1.11-2.69-1.11s-2.68,.39-2.68,1.11,.96,1.1,2.68,1.1,2.69-.38,2.69-1.1Z"/><path class="cls-6" d="M463.49,716.24h-6.93v-1.08h2.79v-1.22h1.34v1.22h2.79v1.08Zm-3.47,4.58c-1.69,0-2.85-.83-2.85-2.08s1.16-2.07,2.85-2.07,2.85,.83,2.85,2.07-1.14,2.08-2.85,2.08Zm4.37,.56h1.33v4.26h-7.5v-4.26h1.33v1.08h4.85v-1.08Zm-4.37-1.56c.94,0,1.57-.4,1.57-1.08s-.64-1.07-1.57-1.07-1.56,.4-1.56,1.07,.62,1.08,1.56,1.08Zm4.37,3.68h-4.85v1.08h4.85v-1.08Zm2.99-5.42h-1.66v2.82h-1.34v-6.85h1.34v2.92h1.66v1.11Z"/><path class="cls-6" d="M470.53,721.68c1.66-.01,3.42-.16,5.27-.53l.14,1.12c-2.01,.42-3.91,.56-5.73,.56h-1v-7.63h1.33v6.49Zm7.68-7.63v11.74h-1.34v-11.74h1.34Z"/><path class="cls-6" d="M482.28,721.79c1.9-.01,3.33-.09,4.97-.38l.14,1.11c-1.78,.32-3.37,.39-5.49,.39h-.96v-7.76h5.46v1.09h-4.12v5.55Zm9.11-2.13h-1.83v6.14h-1.34v-11.76h1.34v4.52h1.83v1.11Z"/><path class="cls-6" d="M492.7,723.91c0-.62,.44-1.07,1-1.07s1,.44,1,1.07-.44,1.04-1,1.04-1-.43-1-1.04Z"/></g><g><path d="M630.88,420.98h-5.03v4.47h-1.44v-4.47h-4.96v-1.18h11.43v1.18Zm-1.05-2.37c-2.1-.34-3.82-1.4-4.65-2.86-.81,1.47-2.56,2.52-4.66,2.86l-.56-1.16c2.58-.36,4.45-1.92,4.45-3.59v-.67h1.53v.67c0,1.64,1.9,3.22,4.45,3.59l-.56,1.16Z"/><path d="M643.79,419.2v1.16h-4.9v2.38h-1.44v-2.38h-5.13v-1.16h11.47Zm-10.86-1.92c2.38-.28,4.02-1.46,4.13-2.75h-3.68v-1.16h9.34v1.16h-3.71c.11,1.29,1.78,2.47,4.15,2.75l-.53,1.15c-2.2-.28-3.91-1.29-4.59-2.69-.67,1.4-2.37,2.41-4.55,2.69l-.55-1.15Zm2.23,6.74h7.35v1.18h-8.8v-3.61h1.44v2.44Z"/><path d="M660.56,418.37v1.16h-11.44v-1.16h5v-1.36h-3.49v-3.96h1.44v2.8h7.24v1.16h-3.74v1.36h4.99Zm-3.07,5.76h1.95v1.15h-9.19v-1.15h1.96v-2.37h-1.83v-1.15h8.96v1.15h-1.85v2.37Zm-3.85,0h2.42v-2.37h-2.42v2.37Z"/><path d="M673.44,419.34v1.18h-11.44v-1.18h11.44Zm-10.23-3.6c0-1.6,1.78-2.56,4.51-2.56s4.51,.97,4.51,2.56-1.78,2.58-4.51,2.58-4.51-.97-4.51-2.58Zm1.68,8.28h7.27v1.18h-8.73v-3.68h1.46v2.51Zm-.2-8.28c0,.9,1.16,1.41,3.03,1.41s3.01-.52,3.01-1.41-1.16-1.4-3.01-1.4-3.03,.52-3.03,1.4Z"/><path d="M686.71,419.52c-2.67,.48-5.66,.5-7.86,.5l-.15-1.02c.95,0,2.06,0,3.22-.03v-.71c-1.43-.14-2.3-.71-2.3-1.62,0-1.04,1.18-1.65,3.01-1.65s3.01,.62,3.01,1.65c0,.91-.85,1.48-2.27,1.62v.66c1.09-.06,2.2-.14,3.22-.28l.11,.88Zm-.46-4.86h-7.21v-.99h2.89v-1.01h1.46v1.01h2.87v.99Zm-4.41,9.67h7.34v1h-8.77v-2.79h6.88v-.8h-6.91v-.98h8.33v2.69h-6.88v.88Zm.8-6.93c1.02,0,1.65-.27,1.65-.76s-.63-.74-1.65-.74-1.65,.27-1.65,.74,.64,.76,1.65,.76Zm7.82-1.48v1.19h-1.74v3.12h-1.44v-7.44h1.44v3.12h1.74Z"/><path d="M703.14,418.89v1.18h-11.43v-1.18h4.99v-1.26h-3.57v-4.29h8.61v1.15h-7.19v1.97h7.27v1.16h-3.68v1.26h5Zm-1.4,4.24c0,1.47-1.64,2.31-4.36,2.31s-4.36-.84-4.36-2.31,1.65-2.3,4.36-2.3,4.36,.84,4.36,2.3Zm-1.46,0c0-.77-1.05-1.19-2.9-1.19s-2.89,.42-2.89,1.19,1.04,1.19,2.89,1.19,2.9-.41,2.9-1.19Z"/><path d="M716.02,418.08v1.15h-11.46v-1.15h11.46Zm-10.24-2.91c0-1.42,1.67-2.19,4.51-2.19s4.51,.77,4.51,2.19-1.68,2.17-4.51,2.17-4.51-.77-4.51-2.17Zm1.6,9.05h7.56v1.11h-8.99v-3.18h7.21v-.91h-7.24v-1.09h8.66v3.03h-7.2v1.05Zm-.1-9.05c0,.71,1.05,1.09,3.01,1.09s3.01-.38,3.01-1.09-1.05-1.11-3.01-1.11-3.01,.38-3.01,1.11Z"/><path d="M732.8,421.58h-5v3.88h-1.44v-3.88h-4.99v-1.19h11.43v1.19Zm-10.77-3.15c2.45-.29,4.19-1.62,4.31-2.98h-3.89v-1.16h3.91v-1.49h1.44v1.49h3.92v1.16h-3.91c.13,1.34,1.86,2.69,4.31,2.98l-.52,1.13c-2.06-.27-3.71-1.2-4.54-2.46-.81,1.26-2.46,2.19-4.54,2.46l-.5-1.13Z"/><path d="M745.69,420.15h-5.04v5.28h-1.46v-5.28h-4.94v-1.19h8.22c.36-1.77,.36-3.08,.36-4.25h-7.21v-1.16h8.63v1.11c0,1.19,0,2.51-.32,4.3h1.76v1.19Z"/><path d="M754.61,415.15h-7.47v-1.16h3.01v-1.32h1.44v1.32h3.01v1.16Zm-3.74,4.93c-1.82,0-3.07-.9-3.07-2.24s1.25-2.23,3.07-2.23,3.07,.9,3.07,2.23-1.23,2.24-3.07,2.24Zm4.71,.6h1.43v4.59h-8.08v-4.59h1.43v1.16h5.22v-1.16Zm-4.71-1.68c1.01,0,1.7-.43,1.7-1.16s-.69-1.15-1.7-1.15-1.68,.43-1.68,1.15,.67,1.16,1.68,1.16Zm4.71,3.96h-5.22v1.16h5.22v-1.16Zm3.22-5.84h-1.79v3.04h-1.44v-7.38h1.44v3.15h1.79v1.19Z"/><path d="M762.18,421.01c1.79-.01,3.68-.17,5.67-.57l.15,1.2c-2.17,.45-4.22,.6-6.18,.6h-1.08v-8.22h1.43v6.99Zm8.28-8.22v12.65h-1.44v-12.65h1.44Z"/><path d="M774.84,421.13c2.05-.01,3.59-.1,5.35-.41l.15,1.19c-1.92,.35-3.63,.42-5.91,.42h-1.04v-8.36h5.88v1.18h-4.44v5.98Zm9.82-2.3h-1.97v6.61h-1.44v-12.68h1.44v4.87h1.97v1.19Z"/><path d="M786.06,423.42c0-.67,.48-1.15,1.08-1.15s1.08,.48,1.08,1.15-.48,1.12-1.08,1.12-1.08-.46-1.08-1.12Z"/></g><g><path d="M58.88,418.06v1.15h-11.46v-1.15h11.46Zm-10.88-1.6c2.37-.18,4.02-1.06,4.27-2.1h-3.78v-1.13h9.36v1.13h-3.8c.25,1.04,1.89,1.92,4.26,2.1l-.45,1.09c-2.2-.18-3.95-.97-4.71-2.13-.74,1.16-2.48,1.95-4.69,2.13l-.46-1.09Zm2.24,7.76h7.56v1.11h-8.99v-3.15h7.21v-.94h-7.24v-1.08h8.66v3.04h-7.2v1.02Z"/><path d="M66.82,413.53c0,3.29-2.06,5.42-5.81,6.39l-.56-1.13c3-.74,4.61-2.2,4.83-4.09h-4.17v-1.16h5.71Zm2.55,6.68h1.43v5.08h-8.28v-5.08h1.44v1.42h5.41v-1.42Zm0,2.54h-5.41v1.39h5.41v-1.39Zm1.43-9.97v6.83h-1.46v-2.59h-2.51v-1.18h2.51v-3.07h1.46Z"/><path d="M79.98,413.1h1.36v11.74h-1.36v-5.86h-2.33c-.74,1.46-1.95,2.73-3.7,3.78l-.83-1.02c2.63-1.57,3.88-3.64,4.09-6.23h-3.49v-1.16h4.92c0,1.23-.17,2.4-.53,3.47h1.86v-4.72Zm4.03-.31v12.65h-1.39v-12.65h1.39Z"/><path d="M97.9,419.53c-2.68,.48-5.66,.5-7.86,.5l-.15-1.02c.95,0,2.06,0,3.22-.03v-.71c-1.43-.14-2.3-.71-2.3-1.62,0-1.04,1.18-1.65,3.01-1.65s3.01,.62,3.01,1.65c0,.91-.85,1.48-2.27,1.62v.66c1.09-.06,2.2-.14,3.22-.28l.11,.88Zm-.46-4.86h-7.21v-.99h2.89v-1.01h1.46v1.01h2.87v.99Zm-4.41,9.67h7.34v1h-8.77v-2.79h6.88v-.8h-6.91v-.98h8.33v2.69h-6.88v.88Zm.8-6.93c1.02,0,1.65-.27,1.65-.76s-.63-.74-1.65-.74-1.65,.27-1.65,.74,.64,.76,1.65,.76Zm7.82-1.48v1.19h-1.74v3.12h-1.44v-7.44h1.44v3.12h1.74Z"/><path d="M114.32,418.9v1.18h-11.43v-1.18h4.99v-1.26h-3.57v-4.29h8.61v1.15h-7.19v1.97h7.27v1.16h-3.68v1.26h5Zm-1.4,4.24c0,1.47-1.64,2.31-4.36,2.31s-4.36-.84-4.36-2.31,1.65-2.3,4.36-2.3,4.36,.84,4.36,2.3Zm-1.46,0c0-.77-1.05-1.19-2.9-1.19s-2.89,.42-2.89,1.19,1.04,1.19,2.89,1.19,2.9-.41,2.9-1.19Z"/><path d="M123.24,415.16h-7.47v-1.16h3.01v-1.32h1.44v1.32h3.01v1.16Zm-3.74,4.93c-1.82,0-3.07-.9-3.07-2.24s1.25-2.23,3.07-2.23,3.07,.9,3.07,2.23-1.23,2.24-3.07,2.24Zm4.71,.6h1.43v4.59h-8.08v-4.59h1.43v1.16h5.23v-1.16Zm-4.71-1.68c1.01,0,1.69-.43,1.69-1.16s-.69-1.15-1.69-1.15-1.68,.43-1.68,1.15,.67,1.16,1.68,1.16Zm4.71,3.96h-5.23v1.16h5.23v-1.16Zm3.22-5.84h-1.79v3.04h-1.44v-7.38h1.44v3.15h1.79v1.19Z"/><path d="M130.81,421.01c1.79-.01,3.68-.17,5.67-.57l.15,1.2c-2.17,.45-4.22,.6-6.18,.6h-1.08v-8.22h1.43v6.99Zm8.28-8.22v12.65h-1.44v-12.65h1.44Z"/><path d="M143.46,421.14c2.04-.01,3.59-.1,5.35-.41l.15,1.19c-1.92,.35-3.63,.42-5.91,.42h-1.04v-8.36h5.88v1.18h-4.44v5.98Zm9.82-2.3h-1.98v6.61h-1.44v-12.68h1.44v4.87h1.98v1.19Z"/><path d="M154.69,423.42c0-.67,.48-1.15,1.08-1.15s1.08,.48,1.08,1.15-.48,1.12-1.08,1.12-1.08-.46-1.08-1.12Z"/></g><g><path d="M355.6,118.24c-.57,.66-1.51,1.06-2.59,1.06-1.91,0-3.31-1.22-3.31-2.91s1.4-2.91,3.31-2.91c1.06,0,1.97,.38,2.56,1.02h2.98v-1.42h1.46v6.43h-1.46v-1.27h-2.96Zm-2.59-.13c1.09,0,1.9-.69,1.9-1.72s-.81-1.72-1.9-1.72-1.93,.69-1.93,1.72,.81,1.72,1.93,1.72Zm7.42,6.35v1.13h-8.64v-3.32h6.79v-1.04h-6.81v-1.12h8.24v3.22h-6.79v1.12h7.21Zm-4.24-8.82c.07,.24,.1,.49,.1,.76,0,.24-.03,.49-.08,.71h2.35v-1.47h-2.37Z"/><path d="M369.41,119.77c-1.46-.48-2.54-1.44-3.1-2.72-.57,1.36-1.67,2.44-3.18,2.96l-.7-1.13c1.99-.67,3.12-2.34,3.12-4.06v-1.22h1.47v1.22c0,1.67,1.13,3.22,3.08,3.84l-.7,1.12Zm-4.85,1.18h8.28v4.65h-8.28v-4.65Zm1.42,3.5h5.45v-2.35h-5.45v2.35Zm6.86-11.33v7.17h-1.44v-7.17h1.44Z"/><path d="M380.07,115.08h3.04v1.16h-7.55v-1.16h3.05v-1.81h1.46v1.81Zm2.46,5c0,1.74-1.34,2.96-3.18,2.96s-3.18-1.22-3.18-2.96,1.34-2.96,3.18-2.96,3.18,1.23,3.18,2.96Zm-1.39,0c0-1.06-.76-1.76-1.79-1.76s-1.79,.7-1.79,1.76,.76,1.77,1.79,1.77,1.79-.7,1.79-1.77Zm4.55-6.98v12.65h-1.46v-12.65h1.46Z"/><path d="M400,119.84c-2.67,.48-5.66,.5-7.86,.5l-.15-1.02c.95,0,2.06,0,3.22-.03v-.71c-1.43-.14-2.3-.71-2.3-1.62,0-1.04,1.18-1.65,3.01-1.65s3.01,.62,3.01,1.65c0,.91-.85,1.48-2.27,1.62v.66c1.09-.06,2.2-.14,3.22-.28l.11,.88Zm-.46-4.86h-7.21v-.99h2.89v-1.01h1.46v1.01h2.87v.99Zm-4.41,9.67h7.34v.99h-8.77v-2.79h6.88v-.8h-6.91v-.98h8.33v2.69h-6.88v.88Zm.8-6.93c1.02,0,1.65-.27,1.65-.76s-.63-.74-1.65-.74-1.65,.27-1.65,.74,.64,.76,1.65,.76Zm7.82-1.48v1.19h-1.74v3.12h-1.44v-7.44h1.44v3.12h1.74Z"/><path d="M416.42,119.21v1.18h-11.43v-1.18h4.99v-1.26h-3.57v-4.29h8.61v1.15h-7.19v1.98h7.27v1.16h-3.68v1.26h5Zm-1.4,4.24c0,1.47-1.64,2.31-4.36,2.31s-4.36-.84-4.36-2.31,1.65-2.3,4.36-2.3,4.36,.84,4.36,2.3Zm-1.46,0c0-.77-1.05-1.19-2.9-1.19s-2.89,.42-2.89,1.19,1.04,1.19,2.89,1.19,2.9-.41,2.9-1.19Z"/><path d="M425.34,115.47h-7.47v-1.16h3.01v-1.32h1.44v1.32h3.01v1.16Zm-3.74,4.93c-1.82,0-3.07-.9-3.07-2.24s1.25-2.23,3.07-2.23,3.07,.9,3.07,2.23-1.23,2.24-3.07,2.24Zm4.71,.6h1.43v4.59h-8.08v-4.59h1.43v1.16h5.22v-1.16Zm-4.71-1.68c1.01,0,1.7-.43,1.7-1.16s-.69-1.15-1.7-1.15-1.68,.43-1.68,1.15,.67,1.16,1.68,1.16Zm4.71,3.96h-5.22v1.16h5.22v-1.16Zm3.22-5.84h-1.79v3.04h-1.44v-7.38h1.44v3.15h1.79v1.19Z"/><path d="M432.91,121.33c1.79-.01,3.68-.17,5.67-.57l.15,1.2c-2.17,.45-4.22,.6-6.18,.6h-1.08v-8.22h1.43v6.99Zm8.28-8.22v12.65h-1.44v-12.65h1.44Z"/><path d="M445.56,121.45c2.05-.01,3.59-.1,5.35-.41l.15,1.19c-1.92,.35-3.63,.42-5.91,.42h-1.04v-8.36h5.88v1.18h-4.44v5.98Zm9.82-2.3h-1.97v6.61h-1.44v-12.68h1.44v4.88h1.97v1.19Z"/><path d="M456.79,123.73c0-.67,.48-1.15,1.08-1.15s1.08,.48,1.08,1.15-.48,1.12-1.08,1.12-1.08-.46-1.08-1.12Z"/></g></g></g></svg>